<mxfile host="65bd71144e">
    <diagram name="第 1 页" id="LJhqZ1uiyOu1iPFU496F">
        <mxGraphModel dx="885" dy="623" grid="1" gridSize="10" guides="1" tooltips="1" connect="1" arrows="1" fold="1" page="1" pageScale="1" pageWidth="827" pageHeight="1169" background="#FFFFFF" math="0" shadow="0">
            <root>
                <mxCell id="0"/>
                <mxCell id="1" parent="0"/>
                <mxCell id="101" value="" style="rounded=0;whiteSpace=wrap;html=1;fillColor=none;" parent="1" vertex="1">
                    <mxGeometry x="41" width="1159" height="600" as="geometry"/>
                </mxCell>
                <mxCell id="74" value="" style="rounded=0;whiteSpace=wrap;html=1;fillColor=none;" parent="1" vertex="1">
                    <mxGeometry x="360" y="50" width="800" height="510" as="geometry"/>
                </mxCell>
                <mxCell id="51" style="edgeStyle=none;html=1;entryX=0;entryY=0.5;entryDx=0;entryDy=0;" parent="1" source="10" target="50" edge="1">
                    <mxGeometry relative="1" as="geometry"/>
                </mxCell>
                <mxCell id="10" value="" style="rounded=1;whiteSpace=wrap;html=1;fillColor=#fff2cc;strokeColor=#d6b656;" parent="1" vertex="1">
                    <mxGeometry x="640" y="200" width="320" height="120" as="geometry"/>
                </mxCell>
                <mxCell id="4" style="edgeStyle=none;html=1;" parent="1" source="2" target="3" edge="1">
                    <mxGeometry relative="1" as="geometry"/>
                </mxCell>
                <mxCell id="2" value="Target Problem" style="ellipse;whiteSpace=wrap;html=1;" parent="1" vertex="1">
                    <mxGeometry x="80" y="190" width="120" height="60" as="geometry"/>
                </mxCell>
                <mxCell id="7" style="edgeStyle=none;html=1;entryX=0.5;entryY=0;entryDx=0;entryDy=0;flowAnimation=0;strokeColor=default;" parent="1" source="3" target="6" edge="1">
                    <mxGeometry relative="1" as="geometry">
                        <Array as="points">
                            <mxPoint x="460" y="220"/>
                        </Array>
                    </mxGeometry>
                </mxCell>
                <mxCell id="77" value="Input once" style="edgeLabel;html=1;align=center;verticalAlign=middle;resizable=0;points=[];" parent="7" vertex="1" connectable="0">
                    <mxGeometry x="-0.1369" relative="1" as="geometry">
                        <mxPoint y="-1" as="offset"/>
                    </mxGeometry>
                </mxCell>
                <mxCell id="3" value="Problem Embedding" style="rounded=1;whiteSpace=wrap;html=1;fillColor=#d5e8d4;strokeColor=#82b366;" parent="1" vertex="1">
                    <mxGeometry x="220" y="200" width="120" height="40" as="geometry"/>
                </mxCell>
                <mxCell id="8" style="edgeStyle=none;html=1;entryX=0.5;entryY=1;entryDx=0;entryDy=0;" parent="1" source="5" target="6" edge="1">
                    <mxGeometry relative="1" as="geometry"/>
                </mxCell>
                <mxCell id="5" value="Sequence Embedding" style="rounded=1;whiteSpace=wrap;html=1;fillColor=#dae8fc;strokeColor=#6c8ebf;" parent="1" vertex="1">
                    <mxGeometry x="400" y="300" width="120" height="40" as="geometry"/>
                </mxCell>
                <mxCell id="34" style="edgeStyle=none;html=1;entryX=0;entryY=0.5;entryDx=0;entryDy=0;" parent="1" source="79" target="10" edge="1">
                    <mxGeometry relative="1" as="geometry"/>
                </mxCell>
                <mxCell id="87" style="edgeStyle=none;html=1;exitX=1;exitY=0.25;exitDx=0;exitDy=0;entryX=0;entryY=0.25;entryDx=0;entryDy=0;" parent="1" source="6" target="31" edge="1">
                    <mxGeometry relative="1" as="geometry">
                        <Array as="points">
                            <mxPoint x="520" y="250"/>
                            <mxPoint x="520" y="130"/>
                        </Array>
                    </mxGeometry>
                </mxCell>
                <mxCell id="6" value="Concat" style="rounded=1;whiteSpace=wrap;html=1;" parent="1" vertex="1">
                    <mxGeometry x="420" y="240" width="80" height="40" as="geometry"/>
                </mxCell>
                <mxCell id="11" value="&lt;span style=&quot;font-size: 10px;&quot;&gt;Pre-trained&lt;/span&gt;&lt;div&gt;&lt;span style=&quot;font-size: 10px;&quot;&gt;model&lt;/span&gt;&lt;/div&gt;" style="rounded=0;whiteSpace=wrap;html=1;rotation=90;" parent="1" vertex="1">
                    <mxGeometry x="654.38" y="218.13" width="80" height="83.75" as="geometry"/>
                </mxCell>
                <mxCell id="20" value="&lt;font style=&quot;font-size: 10px;&quot;&gt;Layer 2&lt;/font&gt;" style="rounded=0;whiteSpace=wrap;html=1;rotation=90;" parent="1" vertex="1">
                    <mxGeometry x="730" y="252.5" width="80" height="15" as="geometry"/>
                </mxCell>
                <mxCell id="21" value="&lt;font style=&quot;font-size: 10px;&quot;&gt;Layer 3&lt;/font&gt;" style="rounded=0;whiteSpace=wrap;html=1;rotation=90;" parent="1" vertex="1">
                    <mxGeometry x="765" y="252.5" width="80" height="15" as="geometry"/>
                </mxCell>
                <mxCell id="24" value="" style="endArrow=none;dashed=1;html=1;dashPattern=1 3;strokeWidth=2;entryX=0.818;entryY=0.667;entryDx=0;entryDy=0;entryPerimeter=0;" parent="1" edge="1">
                    <mxGeometry width="50" height="50" relative="1" as="geometry">
                        <mxPoint x="840" y="260" as="sourcePoint"/>
                        <mxPoint x="909.94" y="260.04" as="targetPoint"/>
                    </mxGeometry>
                </mxCell>
                <mxCell id="25" value="&lt;div&gt;&lt;span style=&quot;background-color: transparent;&quot;&gt;Adaptable Transformer&lt;/span&gt;&lt;/div&gt;" style="text;strokeColor=none;fillColor=none;html=1;fontSize=18;fontStyle=1;verticalAlign=middle;align=center;" parent="1" vertex="1">
                    <mxGeometry x="672.5" y="300" width="265" height="40" as="geometry"/>
                </mxCell>
                <mxCell id="29" value="&lt;font style=&quot;font-size: 10px;&quot;&gt;Layer&amp;nbsp; N&lt;/font&gt;" style="rounded=0;whiteSpace=wrap;html=1;rotation=90;" parent="1" vertex="1">
                    <mxGeometry x="890" y="252.5" width="80" height="15" as="geometry"/>
                </mxCell>
                <mxCell id="30" value="" style="shape=curlyBracket;whiteSpace=wrap;html=1;rounded=1;labelPosition=left;verticalLabelPosition=middle;align=right;verticalAlign=middle;rotation=90;size=0.5;" parent="1" vertex="1">
                    <mxGeometry x="765" y="35" width="70" height="310" as="geometry"/>
                </mxCell>
                <mxCell id="88" style="edgeStyle=none;html=1;exitX=0;exitY=0.5;exitDx=0;exitDy=0;entryX=0.5;entryY=0;entryDx=0;entryDy=0;" parent="1" source="31" target="94" edge="1">
                    <mxGeometry relative="1" as="geometry">
                        <mxPoint x="540" y="260" as="targetPoint"/>
                        <Array as="points">
                            <mxPoint x="540" y="140"/>
                        </Array>
                    </mxGeometry>
                </mxCell>
                <mxCell id="96" value="await" style="edgeLabel;html=1;align=center;verticalAlign=middle;resizable=0;points=[];" parent="88" vertex="1" connectable="0">
                    <mxGeometry x="0.6945" relative="1" as="geometry">
                        <mxPoint y="27" as="offset"/>
                    </mxGeometry>
                </mxCell>
                <mxCell id="31" value="Meta-heuristic algorithm" style="rounded=1;whiteSpace=wrap;html=1;fillColor=#ffe6cc;strokeColor=#d79b00;" parent="1" vertex="1">
                    <mxGeometry x="745" y="120" width="120" height="40" as="geometry"/>
                </mxCell>
                <mxCell id="32" value="Atten." style="rounded=1;whiteSpace=wrap;html=1;" parent="1" vertex="1">
                    <mxGeometry x="818.13" y="100" width="63" height="20" as="geometry"/>
                </mxCell>
                <mxCell id="57" style="edgeStyle=none;html=1;entryX=1;entryY=0.5;entryDx=0;entryDy=0;" parent="1" source="38" target="45" edge="1">
                    <mxGeometry relative="1" as="geometry"/>
                </mxCell>
                <mxCell id="38" value="Masked Sampling" style="rounded=1;whiteSpace=wrap;html=1;rotation=0;fillColor=#e1d5e7;strokeColor=#9673a6;" parent="1" vertex="1">
                    <mxGeometry x="990" y="420" width="118.5" height="40" as="geometry"/>
                </mxCell>
                <mxCell id="59" style="edgeStyle=none;html=1;entryX=1;entryY=0.5;entryDx=0;entryDy=0;" parent="1" source="45" target="32" edge="1">
                    <mxGeometry relative="1" as="geometry">
                        <Array as="points">
                            <mxPoint x="870" y="520"/>
                            <mxPoint x="1120" y="520"/>
                            <mxPoint x="1120" y="110"/>
                        </Array>
                    </mxGeometry>
                </mxCell>
                <mxCell id="68" style="edgeStyle=none;html=1;entryX=1;entryY=0.5;entryDx=0;entryDy=0;" parent="1" source="45" target="71" edge="1">
                    <mxGeometry relative="1" as="geometry">
                        <Array as="points">
                            <mxPoint x="540" y="440"/>
                        </Array>
                    </mxGeometry>
                </mxCell>
                <mxCell id="70" value="Update the algorithm sequence&amp;nbsp;" style="edgeLabel;html=1;align=center;verticalAlign=middle;resizable=0;points=[];" parent="68" vertex="1" connectable="0">
                    <mxGeometry x="-0.0899" y="-1" relative="1" as="geometry">
                        <mxPoint as="offset"/>
                    </mxGeometry>
                </mxCell>
                <mxCell id="45" value="&lt;font style=&quot;color: rgb(0, 0, 0);&quot;&gt;Evalute selected&amp;nbsp;&lt;/font&gt;&lt;div&gt;&lt;font style=&quot;color: rgb(0, 0, 0);&quot;&gt;hyper-param for&amp;nbsp;&lt;/font&gt;&lt;/div&gt;&lt;div&gt;&lt;font style=&quot;color: rgb(0, 0, 0);&quot;&gt;algorithms&lt;/font&gt;&lt;/div&gt;" style="rounded=1;whiteSpace=wrap;html=1;fillColor=#ffe6cc;strokeColor=#d79b00;fontColor=#000000;" parent="1" vertex="1">
                    <mxGeometry x="810" y="420" width="120" height="40" as="geometry"/>
                </mxCell>
                <mxCell id="53" style="edgeStyle=none;html=1;entryX=0.5;entryY=0;entryDx=0;entryDy=0;" parent="1" source="50" target="38" edge="1">
                    <mxGeometry relative="1" as="geometry"/>
                </mxCell>
                <mxCell id="56" value="Pass" style="edgeLabel;html=1;align=center;verticalAlign=middle;resizable=0;points=[];" parent="53" vertex="1" connectable="0">
                    <mxGeometry x="-0.1882" y="-1" relative="1" as="geometry">
                        <mxPoint as="offset"/>
                    </mxGeometry>
                </mxCell>
                <mxCell id="54" style="edgeStyle=none;html=1;entryX=1;entryY=0.25;entryDx=0;entryDy=0;" parent="1" source="50" target="31" edge="1">
                    <mxGeometry relative="1" as="geometry">
                        <Array as="points">
                            <mxPoint x="1050" y="130"/>
                        </Array>
                    </mxGeometry>
                </mxCell>
                <mxCell id="55" value="Not&lt;div&gt;pass&lt;/div&gt;" style="edgeLabel;html=1;align=center;verticalAlign=middle;resizable=0;points=[];" parent="54" vertex="1" connectable="0">
                    <mxGeometry x="-0.6706" y="1" relative="1" as="geometry">
                        <mxPoint as="offset"/>
                    </mxGeometry>
                </mxCell>
                <mxCell id="50" value="Model&lt;div&gt;pre-evaluate&lt;/div&gt;" style="rhombus;whiteSpace=wrap;html=1;fillColor=#f8cecc;strokeColor=#b85450;" parent="1" vertex="1">
                    <mxGeometry x="997" y="220" width="103" height="80" as="geometry"/>
                </mxCell>
                <mxCell id="60" value="Select&amp;nbsp; a proper architecture" style="text;html=1;align=center;verticalAlign=middle;resizable=0;points=[];autosize=1;strokeColor=none;fillColor=none;" parent="1" vertex="1">
                    <mxGeometry x="640" y="170" width="170" height="30" as="geometry"/>
                </mxCell>
                <mxCell id="61" value="" style="shape=curlyBracket;whiteSpace=wrap;html=1;rounded=1;labelPosition=left;verticalLabelPosition=middle;align=right;verticalAlign=middle;rotation=90;" parent="1" vertex="1">
                    <mxGeometry x="449.5" y="270" width="20" height="160" as="geometry"/>
                </mxCell>
                <mxCell id="62" value="" style="shape=partialRectangle;whiteSpace=wrap;html=1;bottom=1;right=1;left=1;top=0;fillColor=none;routingCenterX=-0.5;rotation=90;" parent="1" vertex="1">
                    <mxGeometry x="350" y="380" width="40" height="10" as="geometry"/>
                </mxCell>
                <mxCell id="63" value="" style="shape=partialRectangle;whiteSpace=wrap;html=1;bottom=1;right=1;left=1;top=0;fillColor=none;routingCenterX=-0.5;rotation=-90;" parent="1" vertex="1">
                    <mxGeometry x="530" y="380" width="40" height="10" as="geometry"/>
                </mxCell>
                <mxCell id="64" value="" style="rounded=0;whiteSpace=wrap;html=1;fillColor=#dae8fc;strokeColor=#6c8ebf;" parent="1" vertex="1">
                    <mxGeometry x="379.5" y="375" width="40" height="20" as="geometry"/>
                </mxCell>
                <mxCell id="65" value="" style="rounded=0;whiteSpace=wrap;html=1;dashed=1;" parent="1" vertex="1">
                    <mxGeometry x="429.5" y="375" width="40" height="20" as="geometry"/>
                </mxCell>
                <mxCell id="67" value="" style="endArrow=none;dashed=1;html=1;dashPattern=1 3;strokeWidth=2;entryX=0.5;entryY=0;entryDx=0;entryDy=0;exitX=1;exitY=0.5;exitDx=0;exitDy=0;" parent="1" source="65" target="63" edge="1">
                    <mxGeometry width="50" height="50" relative="1" as="geometry">
                        <mxPoint x="480" y="385" as="sourcePoint"/>
                        <mxPoint x="545" y="390" as="targetPoint"/>
                    </mxGeometry>
                </mxCell>
                <mxCell id="26" value="" style="shape=datastore;whiteSpace=wrap;html=1;fillColor=#f5f5f5;fontColor=#333333;strokeColor=#666666;" parent="1" vertex="1">
                    <mxGeometry x="850" y="355" width="40" height="40" as="geometry"/>
                </mxCell>
                <UserObject label="&lt;font style=&quot;color: rgb(0, 0, 0);&quot;&gt;Meta-heuristic&amp;nbsp;&lt;/font&gt;&lt;div&gt;&lt;font style=&quot;color: rgb(0, 0, 0);&quot;&gt;algorithm pool&lt;/font&gt;&lt;/div&gt;" placeholders="1" name="Variable" id="28">
                    <mxCell style="text;html=1;strokeColor=none;fillColor=none;align=center;verticalAlign=middle;whiteSpace=wrap;overflow=hidden;" parent="1" vertex="1">
                        <mxGeometry x="881.13" y="355" width="100" height="40" as="geometry"/>
                    </mxCell>
                </UserObject>
                <mxCell id="69" value="" style="endArrow=classic;startArrow=classic;html=1;entryX=0.5;entryY=1;entryDx=0;entryDy=0;exitX=0.5;exitY=0;exitDx=0;exitDy=0;" parent="1" source="45" target="26" edge="1">
                    <mxGeometry width="50" height="50" relative="1" as="geometry">
                        <mxPoint x="760" y="410" as="sourcePoint"/>
                        <mxPoint x="810" y="360" as="targetPoint"/>
                    </mxGeometry>
                </mxCell>
                <mxCell id="72" style="edgeStyle=none;html=1;" parent="1" source="71" edge="1">
                    <mxGeometry relative="1" as="geometry">
                        <mxPoint x="450" y="400" as="targetPoint"/>
                    </mxGeometry>
                </mxCell>
                <mxCell id="71" value="" style="shape=datastore;whiteSpace=wrap;html=1;" parent="1" vertex="1">
                    <mxGeometry x="430" y="420" width="40" height="40" as="geometry"/>
                </mxCell>
                <mxCell id="76" value="Automated Meta-Heuristic machanism" style="text;strokeColor=none;fillColor=none;html=1;fontSize=24;fontStyle=1;verticalAlign=middle;align=center;" parent="1" vertex="1">
                    <mxGeometry x="530" y="50" width="100" height="40" as="geometry"/>
                </mxCell>
                <mxCell id="85" style="edgeStyle=none;html=1;entryX=1;entryY=0.5;entryDx=0;entryDy=0;endArrow=none;endFill=0;" parent="1" source="79" target="84" edge="1">
                    <mxGeometry relative="1" as="geometry"/>
                </mxCell>
                <mxCell id="84" value="" style="shape=lineEllipse;line=vertical;perimeter=ellipsePerimeter;whiteSpace=wrap;html=1;backgroundOutline=1;rotation=90;" parent="1" vertex="1">
                    <mxGeometry x="605" y="190" width="30" height="30" as="geometry"/>
                </mxCell>
                <mxCell id="90" value="" style="edgeStyle=none;html=1;entryX=0;entryY=0.5;entryDx=0;entryDy=0;" parent="1" source="6" target="94" edge="1">
                    <mxGeometry relative="1" as="geometry">
                        <mxPoint x="500" y="260" as="sourcePoint"/>
                        <mxPoint x="530" y="260" as="targetPoint"/>
                    </mxGeometry>
                </mxCell>
                <mxCell id="92" value="" style="edgeStyle=none;html=1;entryX=0;entryY=0.5;entryDx=0;entryDy=0;exitX=1;exitY=0.5;exitDx=0;exitDy=0;" parent="1" source="94" target="79" edge="1">
                    <mxGeometry relative="1" as="geometry">
                        <mxPoint x="550" y="260" as="sourcePoint"/>
                        <mxPoint x="640" y="260" as="targetPoint"/>
                    </mxGeometry>
                </mxCell>
                <mxCell id="79" value="" style="verticalLabelPosition=bottom;verticalAlign=top;html=1;shape=mxgraph.flowchart.summing_function;" parent="1" vertex="1">
                    <mxGeometry x="610" y="250" width="20" height="20" as="geometry"/>
                </mxCell>
                <mxCell id="94" value="" style="shape=lineEllipse;line=vertical;perimeter=ellipsePerimeter;whiteSpace=wrap;html=1;backgroundOutline=1;" parent="1" vertex="1">
                    <mxGeometry x="530" y="250" width="20" height="20" as="geometry"/>
                </mxCell>
                <mxCell id="100" style="edgeStyle=none;html=1;entryX=0.5;entryY=0;entryDx=0;entryDy=0;" parent="1" source="97" target="99" edge="1">
                    <mxGeometry relative="1" as="geometry">
                        <Array as="points">
                            <mxPoint x="880" y="160"/>
                        </Array>
                    </mxGeometry>
                </mxCell>
                <mxCell id="97" value="" style="shape=datastore;whiteSpace=wrap;html=1;fillColor=#f5f5f5;fontColor=#333333;strokeColor=#666666;" parent="1" vertex="1">
                    <mxGeometry x="907" y="140" width="40" height="40" as="geometry"/>
                </mxCell>
                <UserObject label="Train data&lt;div style=&quot;line-height: 50%;&quot;&gt;&lt;span style=&quot;font-size: 6px; line-height: 50%;&quot;&gt;&amp;amp; valid data&lt;/span&gt;&lt;/div&gt;&lt;div style=&quot;line-height: 50%;&quot;&gt;&lt;font style=&quot;font-size: 6px; line-height: 50%;&quot;&gt;(e.g. CEC benchmark)&lt;/font&gt;&lt;/div&gt;" placeholders="1" name="Variable" id="98">
                    <mxCell style="text;html=1;strokeColor=none;fillColor=none;align=left;verticalAlign=middle;whiteSpace=wrap;overflow=hidden;" parent="1" vertex="1">
                        <mxGeometry x="947" y="135" width="63" height="35" as="geometry"/>
                    </mxCell>
                </UserObject>
                <UserObject label="Train" placeholders="1" name="Variable" id="99">
                    <mxCell style="text;html=1;strokeColor=none;fillColor=none;align=center;verticalAlign=middle;whiteSpace=wrap;overflow=hidden;" parent="1" vertex="1">
                        <mxGeometry x="840" y="175" width="80" height="20" as="geometry"/>
                    </mxCell>
                </UserObject>
                <UserObject label="&lt;font style=&quot;color: rgb(0, 0, 0); font-size: 8px; line-height: 50%;&quot;&gt;&lt;span style=&quot;background-color: light-dark(#ffffff, var(--ge-dark-color, #121212));&quot;&gt;&lt;font style=&quot;color: rgb(0, 0, 0);&quot;&gt;Positional&amp;nbsp;&lt;/font&gt;&lt;/span&gt;&lt;/font&gt;&lt;div style=&quot;line-height: 50%;&quot;&gt;&lt;font style=&quot;color: rgb(0, 0, 0); font-size: 8px; line-height: 50%;&quot;&gt;&lt;span style=&quot;background-color: light-dark(#ffffff, var(--ge-dark-color, #121212));&quot;&gt;Encoding&lt;/span&gt;&lt;/font&gt;&lt;/div&gt;" placeholders="1" name="Variable" id="86">
                    <mxCell style="text;html=1;strokeColor=none;fillColor=none;align=center;verticalAlign=middle;whiteSpace=wrap;overflow=hidden;" parent="1" vertex="1">
                        <mxGeometry x="555" y="155" width="130" height="35" as="geometry"/>
                    </mxCell>
                </UserObject>
            </root>
        </mxGraphModel>
    </diagram>
</mxfile>